# xmcd
#
# Track frame offsets:
#	150
#	35295
#	63838
#	96548
#	126948
#	166370
#	181375
#	205339
#	235373
#
# Disc length: 3574 seconds
#
# Revision: 1
# Processed by: cddbd v1.5.2PL0 Copyright (c) Steve Scherf et al.
# Submitted via: audiograbber 1.83.01
#
DISCID=7d0df409
DTITLE=Grateful Dead - 95-06-04 Shoreline Amphitheatre, Mountain View CA
DYEAR=1900
DGENRE=
TTITLE0=Bertha
TTITLE1=Wang Dang Doodle
TTITLE2=Peggy-O
TTITLE3=Queen Jane Approximately
TTITLE4=Loose Lucy
TTITLE5=Mama Tried
TTITLE6=Mexicali Blues
TTITLE7=Lazy River Road
TTITLE8=Cassidy
EXTD=
EXTT0=
EXTT1=
EXTT2=
EXTT3=
EXTT4=
EXTT5=
EXTT6=
EXTT7=
EXTT8=
PLAYORDER=
